<svg xmlns="http://www.w3.org/2000/svg" viewBox="0 0 20.87 20.87"><defs><style>.cls-1{fill:#124191;}</style></defs><g id="Layer_2" data-name="Layer 2"><g id="Layer_1-2" data-name="Layer 1"><g id="_4s3Qqw.tif" data-name="4s3Qqw.tif"><path class="cls-1" d="M11.94,16.7v3.43a.65.65,0,0,1-.74.74H.75c-.52,0-.75-.24-.75-.76V5c0-.55.23-.78.79-.78H8.92V.76c0-.53.23-.76.77-.76h10.4c.55,0,.78.23.78.78V15.91c0,.55-.24.78-.78.78H11.94ZM6.28,12.09l0-.06a1.37,1.37,0,0,1-.18-.16L4.28,10a.43.43,0,0,1-.13-.48.37.37,0,0,1,.36-.28.78.78,0,0,1,.41.19c.91.89,1.8,1.79,2.7,2.68.28.29.28.49,0,.78L4.94,15.59l-.09.09a.43.43,0,0,1-.6,0,.43.43,0,0,1,0-.6L4.36,15l1.78-1.79L6.33,13h-5v6.59h9.33V5.5H1.31v6.59ZM19.56,7.9V1.31H10.23V4.18h.89c.61,0,.82.22.82.83V15.38h7.62V8.8h-5l.52.51,1.55,1.55a.37.37,0,0,1,.11.46.63.63,0,0,1-.35.28.67.67,0,0,1-.42-.19c-.9-.88-1.8-1.78-2.69-2.68a.46.46,0,0,1,0-.77l2.67-2.67A1.14,1.14,0,0,1,16,5.18a.44.44,0,0,1,.58,0,.42.42,0,0,1,0,.58.93.93,0,0,1-.14.14L14.72,7.71l-.18.19Z"/></g></g></g></svg>